<mxfile host="app.diagrams.net" modified="2023-06-22T07:16:55.869Z" agent="Mozilla/5.0 (Windows NT 10.0; Win64; x64; rv:109.0) Gecko/20100101 Firefox/114.0" etag="VhdYQP9xPKypV2PSkMvT" version="21.5.0" type="device" pages="2">
  <diagram name="Page-1" id="VcBqrdRL1sSiQqwj9spP">
    <mxGraphModel dx="1050" dy="566" grid="1" gridSize="10" guides="1" tooltips="1" connect="1" arrows="1" fold="1" page="1" pageScale="1" pageWidth="827" pageHeight="1169" math="0" shadow="0">
      <root>
        <mxCell id="0" />
        <mxCell id="1" parent="0" />
        <mxCell id="Eifh9r8NQX1qjbTjvXPd-1" value="&lt;b&gt;&lt;font style=&quot;font-size: 20px;&quot;&gt;FPGA Design Flow&lt;/font&gt;&lt;/b&gt;" style="text;html=1;strokeColor=none;fillColor=none;align=center;verticalAlign=middle;whiteSpace=wrap;rounded=0;" vertex="1" parent="1">
          <mxGeometry x="250" y="60" width="260" height="30" as="geometry" />
        </mxCell>
        <mxCell id="Eifh9r8NQX1qjbTjvXPd-2" style="edgeStyle=orthogonalEdgeStyle;rounded=0;orthogonalLoop=1;jettySize=auto;html=1;exitX=0.5;exitY=1;exitDx=0;exitDy=0;entryX=0.5;entryY=0;entryDx=0;entryDy=0;" edge="1" parent="1" source="Eifh9r8NQX1qjbTjvXPd-3" target="Eifh9r8NQX1qjbTjvXPd-7">
          <mxGeometry relative="1" as="geometry" />
        </mxCell>
        <mxCell id="Eifh9r8NQX1qjbTjvXPd-3" value="&lt;b&gt;Design Specifications&lt;/b&gt;" style="rounded=1;whiteSpace=wrap;html=1;fillColor=#647687;fontColor=#ffffff;strokeColor=#314354;" vertex="1" parent="1">
          <mxGeometry x="290" y="130" width="190" height="40" as="geometry" />
        </mxCell>
        <mxCell id="Eifh9r8NQX1qjbTjvXPd-4" style="edgeStyle=orthogonalEdgeStyle;rounded=0;orthogonalLoop=1;jettySize=auto;html=1;exitX=0.5;exitY=1;exitDx=0;exitDy=0;entryX=0.5;entryY=0;entryDx=0;entryDy=0;" edge="1" parent="1" source="Eifh9r8NQX1qjbTjvXPd-5" target="Eifh9r8NQX1qjbTjvXPd-9">
          <mxGeometry relative="1" as="geometry" />
        </mxCell>
        <mxCell id="Eifh9r8NQX1qjbTjvXPd-5" value="&lt;b&gt;Verfication Flow&lt;br&gt;&lt;/b&gt;" style="rounded=1;whiteSpace=wrap;html=1;fillColor=#f0a30a;fontColor=#000000;strokeColor=#BD7000;" vertex="1" parent="1">
          <mxGeometry x="570" y="210" width="190" height="40" as="geometry" />
        </mxCell>
        <mxCell id="Eifh9r8NQX1qjbTjvXPd-6" style="edgeStyle=orthogonalEdgeStyle;rounded=0;orthogonalLoop=1;jettySize=auto;html=1;exitX=1;exitY=0.5;exitDx=0;exitDy=0;" edge="1" parent="1" source="Eifh9r8NQX1qjbTjvXPd-7" target="Eifh9r8NQX1qjbTjvXPd-5">
          <mxGeometry relative="1" as="geometry" />
        </mxCell>
        <mxCell id="Eifh9r8NQX1qjbTjvXPd-7" value="&lt;b&gt;HDL Design&lt;br&gt;&lt;/b&gt;" style="rounded=1;whiteSpace=wrap;html=1;fillColor=#647687;fontColor=#ffffff;strokeColor=#314354;" vertex="1" parent="1">
          <mxGeometry x="290" y="210" width="190" height="40" as="geometry" />
        </mxCell>
        <mxCell id="Eifh9r8NQX1qjbTjvXPd-8" style="edgeStyle=orthogonalEdgeStyle;rounded=0;orthogonalLoop=1;jettySize=auto;html=1;exitX=0;exitY=0.5;exitDx=0;exitDy=0;entryX=1;entryY=0.5;entryDx=0;entryDy=0;" edge="1" parent="1" source="Eifh9r8NQX1qjbTjvXPd-9" target="Eifh9r8NQX1qjbTjvXPd-12">
          <mxGeometry relative="1" as="geometry" />
        </mxCell>
        <mxCell id="Eifh9r8NQX1qjbTjvXPd-9" value="&lt;b&gt;Functionally Verified Design&lt;br&gt;&lt;/b&gt;" style="rounded=1;whiteSpace=wrap;html=1;" vertex="1" parent="1">
          <mxGeometry x="570" y="300" width="190" height="40" as="geometry" />
        </mxCell>
        <mxCell id="Eifh9r8NQX1qjbTjvXPd-10" style="edgeStyle=orthogonalEdgeStyle;rounded=0;orthogonalLoop=1;jettySize=auto;html=1;exitX=0;exitY=0.5;exitDx=0;exitDy=0;entryX=1;entryY=0.5;entryDx=0;entryDy=0;" edge="1" parent="1" source="Eifh9r8NQX1qjbTjvXPd-12" target="Eifh9r8NQX1qjbTjvXPd-16">
          <mxGeometry relative="1" as="geometry" />
        </mxCell>
        <mxCell id="Eifh9r8NQX1qjbTjvXPd-11" style="edgeStyle=orthogonalEdgeStyle;rounded=0;orthogonalLoop=1;jettySize=auto;html=1;exitX=0.5;exitY=1;exitDx=0;exitDy=0;entryX=0.5;entryY=0;entryDx=0;entryDy=0;" edge="1" parent="1" source="Eifh9r8NQX1qjbTjvXPd-12" target="Eifh9r8NQX1qjbTjvXPd-20">
          <mxGeometry relative="1" as="geometry" />
        </mxCell>
        <mxCell id="Eifh9r8NQX1qjbTjvXPd-12" value="&lt;b&gt;Logic Synthesis&lt;br&gt;&lt;/b&gt;" style="rounded=1;whiteSpace=wrap;html=1;fillColor=#647687;fontColor=#ffffff;strokeColor=#314354;" vertex="1" parent="1">
          <mxGeometry x="290" y="300" width="190" height="40" as="geometry" />
        </mxCell>
        <mxCell id="Eifh9r8NQX1qjbTjvXPd-13" style="edgeStyle=orthogonalEdgeStyle;rounded=0;orthogonalLoop=1;jettySize=auto;html=1;exitX=0.5;exitY=0;exitDx=0;exitDy=0;entryX=0;entryY=0.5;entryDx=0;entryDy=0;" edge="1" parent="1" source="Eifh9r8NQX1qjbTjvXPd-16" target="Eifh9r8NQX1qjbTjvXPd-7">
          <mxGeometry relative="1" as="geometry" />
        </mxCell>
        <mxCell id="Eifh9r8NQX1qjbTjvXPd-14" style="edgeStyle=orthogonalEdgeStyle;rounded=0;orthogonalLoop=1;jettySize=auto;html=1;exitX=0.75;exitY=1;exitDx=0;exitDy=0;entryX=0.25;entryY=1;entryDx=0;entryDy=0;" edge="1" parent="1" source="Eifh9r8NQX1qjbTjvXPd-16" target="Eifh9r8NQX1qjbTjvXPd-12">
          <mxGeometry relative="1" as="geometry" />
        </mxCell>
        <mxCell id="Eifh9r8NQX1qjbTjvXPd-15" style="edgeStyle=orthogonalEdgeStyle;rounded=0;orthogonalLoop=1;jettySize=auto;html=1;exitX=0.5;exitY=1;exitDx=0;exitDy=0;entryX=0;entryY=0.5;entryDx=0;entryDy=0;" edge="1" parent="1" source="Eifh9r8NQX1qjbTjvXPd-16" target="Eifh9r8NQX1qjbTjvXPd-24">
          <mxGeometry relative="1" as="geometry" />
        </mxCell>
        <mxCell id="Eifh9r8NQX1qjbTjvXPd-16" value="&lt;b&gt;Analyse Reports&lt;br&gt;&lt;/b&gt;" style="rounded=1;whiteSpace=wrap;html=1;fillColor=#fad9d5;strokeColor=#ae4132;" vertex="1" parent="1">
          <mxGeometry x="40" y="300" width="190" height="40" as="geometry" />
        </mxCell>
        <mxCell id="Eifh9r8NQX1qjbTjvXPd-17" style="edgeStyle=orthogonalEdgeStyle;rounded=0;orthogonalLoop=1;jettySize=auto;html=1;exitX=1;exitY=0.5;exitDx=0;exitDy=0;entryX=0;entryY=0.5;entryDx=0;entryDy=0;" edge="1" parent="1" source="Eifh9r8NQX1qjbTjvXPd-20" target="Eifh9r8NQX1qjbTjvXPd-21">
          <mxGeometry relative="1" as="geometry" />
        </mxCell>
        <mxCell id="Eifh9r8NQX1qjbTjvXPd-18" style="edgeStyle=orthogonalEdgeStyle;rounded=0;orthogonalLoop=1;jettySize=auto;html=1;exitX=0.75;exitY=1;exitDx=0;exitDy=0;entryX=0;entryY=0.5;entryDx=0;entryDy=0;" edge="1" parent="1" source="Eifh9r8NQX1qjbTjvXPd-20" target="Eifh9r8NQX1qjbTjvXPd-22">
          <mxGeometry relative="1" as="geometry" />
        </mxCell>
        <mxCell id="Eifh9r8NQX1qjbTjvXPd-19" style="edgeStyle=orthogonalEdgeStyle;rounded=0;orthogonalLoop=1;jettySize=auto;html=1;exitX=0.5;exitY=1;exitDx=0;exitDy=0;" edge="1" parent="1" source="Eifh9r8NQX1qjbTjvXPd-20" target="Eifh9r8NQX1qjbTjvXPd-24">
          <mxGeometry relative="1" as="geometry" />
        </mxCell>
        <mxCell id="Eifh9r8NQX1qjbTjvXPd-20" value="&lt;b&gt;Constraints&lt;/b&gt;" style="rounded=1;whiteSpace=wrap;html=1;fillColor=#647687;fontColor=#ffffff;strokeColor=#314354;" vertex="1" parent="1">
          <mxGeometry x="290" y="380" width="190" height="40" as="geometry" />
        </mxCell>
        <mxCell id="Eifh9r8NQX1qjbTjvXPd-21" value="&lt;b&gt;IO Constraints&lt;br&gt;&lt;/b&gt;" style="rounded=1;whiteSpace=wrap;html=1;fillColor=#fad9d5;strokeColor=#ae4132;" vertex="1" parent="1">
          <mxGeometry x="580" y="380" width="190" height="40" as="geometry" />
        </mxCell>
        <mxCell id="Eifh9r8NQX1qjbTjvXPd-22" value="&lt;b&gt;Timing Constraints&lt;br&gt;&lt;/b&gt;" style="rounded=1;whiteSpace=wrap;html=1;fillColor=#fad9d5;strokeColor=#ae4132;" vertex="1" parent="1">
          <mxGeometry x="580" y="430" width="190" height="40" as="geometry" />
        </mxCell>
        <mxCell id="Eifh9r8NQX1qjbTjvXPd-23" style="edgeStyle=orthogonalEdgeStyle;rounded=0;orthogonalLoop=1;jettySize=auto;html=1;exitX=1;exitY=0.5;exitDx=0;exitDy=0;entryX=0;entryY=0.5;entryDx=0;entryDy=0;" edge="1" parent="1" source="Eifh9r8NQX1qjbTjvXPd-24" target="Eifh9r8NQX1qjbTjvXPd-26">
          <mxGeometry relative="1" as="geometry" />
        </mxCell>
        <mxCell id="Eifh9r8NQX1qjbTjvXPd-24" value="&lt;b&gt;Implementation&lt;/b&gt;" style="rounded=1;whiteSpace=wrap;html=1;fillColor=#647687;fontColor=#ffffff;strokeColor=#314354;" vertex="1" parent="1">
          <mxGeometry x="290" y="500" width="190" height="40" as="geometry" />
        </mxCell>
        <mxCell id="Eifh9r8NQX1qjbTjvXPd-25" style="edgeStyle=orthogonalEdgeStyle;rounded=0;orthogonalLoop=1;jettySize=auto;html=1;exitX=0.5;exitY=1;exitDx=0;exitDy=0;" edge="1" parent="1" source="Eifh9r8NQX1qjbTjvXPd-26">
          <mxGeometry relative="1" as="geometry">
            <mxPoint x="675" y="560" as="targetPoint" />
          </mxGeometry>
        </mxCell>
        <mxCell id="Eifh9r8NQX1qjbTjvXPd-26" value="&lt;b&gt;Mapping&lt;/b&gt;" style="rounded=1;whiteSpace=wrap;html=1;fillColor=#ffff88;strokeColor=#36393d;" vertex="1" parent="1">
          <mxGeometry x="580" y="500" width="190" height="40" as="geometry" />
        </mxCell>
        <mxCell id="Eifh9r8NQX1qjbTjvXPd-27" style="edgeStyle=orthogonalEdgeStyle;rounded=0;orthogonalLoop=1;jettySize=auto;html=1;exitX=0.5;exitY=1;exitDx=0;exitDy=0;entryX=0.5;entryY=0;entryDx=0;entryDy=0;" edge="1" parent="1" source="Eifh9r8NQX1qjbTjvXPd-28" target="Eifh9r8NQX1qjbTjvXPd-30">
          <mxGeometry relative="1" as="geometry" />
        </mxCell>
        <mxCell id="Eifh9r8NQX1qjbTjvXPd-28" value="&lt;b&gt;Placing&lt;/b&gt;" style="rounded=1;whiteSpace=wrap;html=1;fillColor=#ffff88;strokeColor=#36393d;" vertex="1" parent="1">
          <mxGeometry x="580" y="565" width="190" height="40" as="geometry" />
        </mxCell>
        <mxCell id="Eifh9r8NQX1qjbTjvXPd-29" style="edgeStyle=orthogonalEdgeStyle;rounded=0;orthogonalLoop=1;jettySize=auto;html=1;exitX=0;exitY=0.5;exitDx=0;exitDy=0;" edge="1" parent="1" source="Eifh9r8NQX1qjbTjvXPd-30" target="Eifh9r8NQX1qjbTjvXPd-33">
          <mxGeometry relative="1" as="geometry" />
        </mxCell>
        <mxCell id="Eifh9r8NQX1qjbTjvXPd-30" value="&lt;b&gt;Routing&lt;/b&gt;" style="rounded=1;whiteSpace=wrap;html=1;fillColor=#ffff88;strokeColor=#36393d;" vertex="1" parent="1">
          <mxGeometry x="580" y="630" width="190" height="40" as="geometry" />
        </mxCell>
        <mxCell id="Eifh9r8NQX1qjbTjvXPd-31" style="edgeStyle=orthogonalEdgeStyle;rounded=0;orthogonalLoop=1;jettySize=auto;html=1;exitX=0;exitY=0.5;exitDx=0;exitDy=0;entryX=0.211;entryY=1;entryDx=0;entryDy=0;entryPerimeter=0;" edge="1" parent="1" source="Eifh9r8NQX1qjbTjvXPd-33" target="Eifh9r8NQX1qjbTjvXPd-16">
          <mxGeometry relative="1" as="geometry" />
        </mxCell>
        <mxCell id="Eifh9r8NQX1qjbTjvXPd-32" style="edgeStyle=orthogonalEdgeStyle;rounded=0;orthogonalLoop=1;jettySize=auto;html=1;exitX=0.5;exitY=1;exitDx=0;exitDy=0;entryX=0.5;entryY=0;entryDx=0;entryDy=0;" edge="1" parent="1" source="Eifh9r8NQX1qjbTjvXPd-33" target="Eifh9r8NQX1qjbTjvXPd-35">
          <mxGeometry relative="1" as="geometry" />
        </mxCell>
        <mxCell id="Eifh9r8NQX1qjbTjvXPd-33" value="&lt;b&gt;STA&lt;/b&gt;" style="rounded=1;whiteSpace=wrap;html=1;fillColor=#647687;fontColor=#ffffff;strokeColor=#314354;" vertex="1" parent="1">
          <mxGeometry x="290" y="630" width="190" height="40" as="geometry" />
        </mxCell>
        <mxCell id="Eifh9r8NQX1qjbTjvXPd-34" style="edgeStyle=orthogonalEdgeStyle;rounded=0;orthogonalLoop=1;jettySize=auto;html=1;exitX=0.5;exitY=1;exitDx=0;exitDy=0;entryX=0.5;entryY=0;entryDx=0;entryDy=0;" edge="1" parent="1" source="Eifh9r8NQX1qjbTjvXPd-35" target="Eifh9r8NQX1qjbTjvXPd-37">
          <mxGeometry relative="1" as="geometry" />
        </mxCell>
        <mxCell id="Eifh9r8NQX1qjbTjvXPd-35" value="&lt;b&gt;Bit Stream&lt;br&gt;&lt;/b&gt;" style="rounded=1;whiteSpace=wrap;html=1;fillColor=#647687;fontColor=#ffffff;strokeColor=#314354;" vertex="1" parent="1">
          <mxGeometry x="290" y="720" width="190" height="40" as="geometry" />
        </mxCell>
        <mxCell id="Eifh9r8NQX1qjbTjvXPd-36" style="edgeStyle=orthogonalEdgeStyle;rounded=0;orthogonalLoop=1;jettySize=auto;html=1;exitX=1;exitY=0.5;exitDx=0;exitDy=0;entryX=0;entryY=0.5;entryDx=0;entryDy=0;" edge="1" parent="1" source="Eifh9r8NQX1qjbTjvXPd-37" target="Eifh9r8NQX1qjbTjvXPd-38">
          <mxGeometry relative="1" as="geometry" />
        </mxCell>
        <mxCell id="Eifh9r8NQX1qjbTjvXPd-37" value="&lt;b&gt;Program the FPGA&lt;br&gt;&lt;/b&gt;" style="rounded=1;whiteSpace=wrap;html=1;fillColor=#647687;fontColor=#ffffff;strokeColor=#314354;" vertex="1" parent="1">
          <mxGeometry x="290" y="800" width="190" height="40" as="geometry" />
        </mxCell>
        <mxCell id="Eifh9r8NQX1qjbTjvXPd-38" value="&lt;b&gt;Live Debug&lt;br&gt;&lt;/b&gt;" style="rounded=1;whiteSpace=wrap;html=1;fillColor=#ffcccc;strokeColor=#36393d;" vertex="1" parent="1">
          <mxGeometry x="570" y="800" width="190" height="40" as="geometry" />
        </mxCell>
        <mxCell id="Eifh9r8NQX1qjbTjvXPd-39" style="edgeStyle=orthogonalEdgeStyle;rounded=0;orthogonalLoop=1;jettySize=auto;html=1;exitX=1;exitY=0.5;exitDx=0;exitDy=0;entryX=0.5;entryY=1;entryDx=0;entryDy=0;" edge="1" parent="1" source="Eifh9r8NQX1qjbTjvXPd-40" target="Eifh9r8NQX1qjbTjvXPd-7">
          <mxGeometry relative="1" as="geometry" />
        </mxCell>
        <mxCell id="Eifh9r8NQX1qjbTjvXPd-40" value="&lt;b&gt;&amp;nbsp;Live Debug Cores&lt;br&gt;&lt;/b&gt;" style="rounded=1;whiteSpace=wrap;html=1;fillColor=#ffcccc;strokeColor=#36393d;" vertex="1" parent="1">
          <mxGeometry x="160" y="254" width="190" height="40" as="geometry" />
        </mxCell>
        <mxCell id="Eifh9r8NQX1qjbTjvXPd-41" value="&lt;b&gt;Verify&lt;/b&gt;" style="rounded=1;whiteSpace=wrap;html=1;fillColor=#cdeb8b;strokeColor=#36393d;" vertex="1" parent="1">
          <mxGeometry x="480" y="680" width="90" height="30" as="geometry" />
        </mxCell>
        <mxCell id="Eifh9r8NQX1qjbTjvXPd-42" value="&lt;b&gt;Verify&lt;/b&gt;" style="rounded=1;whiteSpace=wrap;html=1;fillColor=#cdeb8b;strokeColor=#36393d;" vertex="1" parent="1">
          <mxGeometry x="480" y="347" width="90" height="30" as="geometry" />
        </mxCell>
        <mxCell id="Eifh9r8NQX1qjbTjvXPd-43" value="&lt;b&gt;Verify&lt;/b&gt;" style="rounded=1;whiteSpace=wrap;html=1;fillColor=#cdeb8b;strokeColor=#36393d;" vertex="1" parent="1">
          <mxGeometry x="480" y="254" width="90" height="30" as="geometry" />
        </mxCell>
        <mxCell id="Eifh9r8NQX1qjbTjvXPd-44" value="&lt;b&gt;Verify&lt;/b&gt; using a difffernt setup" style="rounded=1;whiteSpace=wrap;html=1;fillColor=#00FF00;strokeColor=#36393d;" vertex="1" parent="1">
          <mxGeometry x="480" y="860" width="180" height="30" as="geometry" />
        </mxCell>
        <mxCell id="Eifh9r8NQX1qjbTjvXPd-45" value="&lt;b&gt;Micro Architecture Design&lt;br&gt;&lt;/b&gt;" style="rounded=1;whiteSpace=wrap;html=1;fillColor=#dae8fc;strokeColor=#6c8ebf;" vertex="1" parent="1">
          <mxGeometry x="480" y="170" width="240" height="30" as="geometry" />
        </mxCell>
        <mxCell id="Eifh9r8NQX1qjbTjvXPd-47" value="&lt;b&gt;Settings&lt;/b&gt;" style="rounded=1;whiteSpace=wrap;html=1;fillColor=#fff2cc;strokeColor=#d6b656;arcSize=50;" vertex="1" parent="1">
          <mxGeometry x="395" y="480" width="90" height="14" as="geometry" />
        </mxCell>
        <mxCell id="Eifh9r8NQX1qjbTjvXPd-48" value="&lt;b&gt;Settings&lt;/b&gt;" style="rounded=1;whiteSpace=wrap;html=1;fillColor=#fff2cc;strokeColor=#d6b656;arcSize=50;" vertex="1" parent="1">
          <mxGeometry x="380" y="280" width="90" height="14" as="geometry" />
        </mxCell>
      </root>
    </mxGraphModel>
  </diagram>
  <diagram id="DKTvWOxw_dveqikbaRL9" name="Page-2">
    <mxGraphModel dx="1050" dy="566" grid="1" gridSize="10" guides="1" tooltips="1" connect="1" arrows="1" fold="1" page="1" pageScale="1" pageWidth="827" pageHeight="1169" math="0" shadow="0">
      <root>
        <mxCell id="0" />
        <mxCell id="1" parent="0" />
        <mxCell id="M3bRhzeCaCUAuRn4cUJ--1" value="" style="rounded=0;whiteSpace=wrap;html=1;" vertex="1" parent="1">
          <mxGeometry x="220" y="90" width="426" height="240" as="geometry" />
        </mxCell>
        <mxCell id="M3bRhzeCaCUAuRn4cUJ--2" value="&lt;b&gt;FPGA&lt;/b&gt;" style="rounded=1;whiteSpace=wrap;html=1;fillColor=#b1ddf0;strokeColor=#10739e;" vertex="1" parent="1">
          <mxGeometry x="392" y="180" width="90" height="60" as="geometry" />
        </mxCell>
        <mxCell id="_VGad_WB-EoQniWwA2TZ-3" style="edgeStyle=orthogonalEdgeStyle;rounded=0;orthogonalLoop=1;jettySize=auto;html=1;entryX=0.25;entryY=1;entryDx=0;entryDy=0;" edge="1" parent="1" source="M3bRhzeCaCUAuRn4cUJ--3" target="M3bRhzeCaCUAuRn4cUJ--2">
          <mxGeometry relative="1" as="geometry">
            <Array as="points">
              <mxPoint x="415" y="270" />
            </Array>
          </mxGeometry>
        </mxCell>
        <mxCell id="M3bRhzeCaCUAuRn4cUJ--3" value="SW" style="rounded=1;whiteSpace=wrap;html=1;fillColor=#fad9d5;strokeColor=#ae4132;" vertex="1" parent="1">
          <mxGeometry x="260" y="260" width="90" height="40" as="geometry" />
        </mxCell>
        <mxCell id="M3bRhzeCaCUAuRn4cUJ--4" value="Peripheral" style="rounded=1;whiteSpace=wrap;html=1;" vertex="1" parent="1">
          <mxGeometry x="392" y="280" width="90" height="40" as="geometry" />
        </mxCell>
        <mxCell id="M3bRhzeCaCUAuRn4cUJ--5" value="Peripheral" style="rounded=1;whiteSpace=wrap;html=1;" vertex="1" parent="1">
          <mxGeometry x="530" y="260" width="90" height="40" as="geometry" />
        </mxCell>
        <mxCell id="_VGad_WB-EoQniWwA2TZ-1" style="edgeStyle=orthogonalEdgeStyle;rounded=0;orthogonalLoop=1;jettySize=auto;html=1;exitX=0.5;exitY=1;exitDx=0;exitDy=0;entryX=0.25;entryY=0;entryDx=0;entryDy=0;" edge="1" parent="1" source="M3bRhzeCaCUAuRn4cUJ--6" target="M3bRhzeCaCUAuRn4cUJ--2">
          <mxGeometry relative="1" as="geometry" />
        </mxCell>
        <mxCell id="M3bRhzeCaCUAuRn4cUJ--6" value="Crystal" style="rounded=1;whiteSpace=wrap;html=1;fillColor=#fad9d5;strokeColor=#ae4132;" vertex="1" parent="1">
          <mxGeometry x="260" y="120" width="90" height="40" as="geometry" />
        </mxCell>
        <mxCell id="M3bRhzeCaCUAuRn4cUJ--7" value="Peripheral" style="rounded=1;whiteSpace=wrap;html=1;" vertex="1" parent="1">
          <mxGeometry x="392" y="110" width="90" height="40" as="geometry" />
        </mxCell>
        <mxCell id="M3bRhzeCaCUAuRn4cUJ--8" value="Peripheral" style="rounded=1;whiteSpace=wrap;html=1;" vertex="1" parent="1">
          <mxGeometry x="530" y="120" width="90" height="40" as="geometry" />
        </mxCell>
        <mxCell id="M3bRhzeCaCUAuRn4cUJ--10" value="LEDs" style="rounded=1;whiteSpace=wrap;html=1;fillColor=#fad9d5;strokeColor=#ae4132;" vertex="1" parent="1">
          <mxGeometry x="527" y="190" width="90" height="40" as="geometry" />
        </mxCell>
        <mxCell id="M3bRhzeCaCUAuRn4cUJ--11" value="Button" style="rounded=1;whiteSpace=wrap;html=1;fillColor=#fad9d5;strokeColor=#ae4132;" vertex="1" parent="1">
          <mxGeometry x="260" y="190" width="90" height="40" as="geometry" />
        </mxCell>
        <mxCell id="M3bRhzeCaCUAuRn4cUJ--14" value="" style="shape=singleArrow;whiteSpace=wrap;html=1;" vertex="1" parent="1">
          <mxGeometry x="350" y="200" width="40" height="20" as="geometry" />
        </mxCell>
        <mxCell id="M3bRhzeCaCUAuRn4cUJ--15" value="" style="shape=singleArrow;whiteSpace=wrap;html=1;" vertex="1" parent="1">
          <mxGeometry x="482" y="200" width="40" height="20" as="geometry" />
        </mxCell>
        <mxCell id="M3bRhzeCaCUAuRn4cUJ--16" value="LED Logic" style="rounded=1;whiteSpace=wrap;html=1;" vertex="1" parent="1">
          <mxGeometry x="362" y="420" width="120" height="60" as="geometry" />
        </mxCell>
        <mxCell id="M3bRhzeCaCUAuRn4cUJ--17" value="5 bit" style="shape=singleArrow;whiteSpace=wrap;html=1;" vertex="1" parent="1">
          <mxGeometry x="292" y="425" width="70" height="50" as="geometry" />
        </mxCell>
        <mxCell id="M3bRhzeCaCUAuRn4cUJ--19" value="8 bit" style="shape=singleArrow;whiteSpace=wrap;html=1;" vertex="1" parent="1">
          <mxGeometry x="482" y="425" width="70" height="50" as="geometry" />
        </mxCell>
        <mxCell id="K-srwnH2Sofkr9KbnnrI-1" value="&lt;div style=&quot;font-size: 16px;&quot;&gt;&lt;font style=&quot;font-size: 16px;&quot;&gt;&lt;b&gt;Check List&lt;/b&gt;&lt;/font&gt;&lt;/div&gt;&lt;div style=&quot;font-size: 16px;&quot;&gt;&lt;font style=&quot;font-size: 16px;&quot;&gt;1. FPGA User Guide&lt;/font&gt;&lt;/div&gt;&lt;div style=&quot;font-size: 16px;&quot;&gt;&lt;font style=&quot;font-size: 16px;&quot;&gt;2. Board User Guide&lt;/font&gt;&lt;/div&gt;&lt;div style=&quot;font-size: 16px;&quot;&gt;&lt;font style=&quot;font-size: 16px;&quot;&gt;3. Board Schematic&lt;/font&gt;&lt;/div&gt;&lt;div style=&quot;font-size: 16px;&quot;&gt;&lt;font style=&quot;font-size: 16px;&quot;&gt;4. Master Constraints File&lt;font style=&quot;font-size: 16px;&quot;&gt;&lt;br&gt;&lt;/font&gt;&lt;/font&gt;&lt;/div&gt;" style="text;html=1;strokeColor=none;fillColor=none;align=center;verticalAlign=middle;whiteSpace=wrap;rounded=0;" vertex="1" parent="1">
          <mxGeometry x="220" y="540" width="220" height="100" as="geometry" />
        </mxCell>
      </root>
    </mxGraphModel>
  </diagram>
</mxfile>
